<svg width="137" height="39" viewBox="0 0 137 39" fill="none" xmlns="http://www.w3.org/2000/svg">
<path fill-rule="evenodd" clip-rule="evenodd" d="M0.860792 10.897C0.860792 16.9101 0.860733 21.9907 0.860792 22.1512C1.02253 21.9907 1.50774 21.6696 2.80164 20.7065L4.74249 19.2619L4.7564 13.8087L4.74249 8.66809L5.96942 9.82186C7.28144 11.2597 19.3218 22.1512 19.6223 22.1512C19.6223 21.9907 19.6223 16.9184 19.6223 10.9153C19.6223 4.91209 19.6196 0.160513 19.6196 0C19.5171 0 18.3257 0.802564 17.4955 1.36059L15.7406 2.58419V13.5499L14.5276 12.5204C13.8606 11.9541 10.7824 9.08607 7.6874 6.14708C4.59239 3.20777 1.18997 0.230817 0.860023 0C0.858204 0.963077 0.860792 0.314043 0.860792 10.897ZM25.4449 3.53168H40.3247V0.000402219H25.4449V3.53168ZM46.4726 7.78527C46.4746 16.0912 46.6564 17.4481 48.0043 19.2205C50.3831 22.3473 57.4617 22.8658 60.5874 20.1422C62.8958 18.1306 63.0921 17.2337 63.2238 8.1063L63.3405 0.000402219H59.4097V7.72107C59.4097 16.4443 59.4949 16.8794 57.0918 18.3262C55.1283 19.5084 52.0574 18.6302 50.8007 16.5698C50.2563 15.678 50.1793 14.731 50.0845 7.78527L49.9785 0.000402219H46.4707L46.4726 7.78527ZM69.1139 3.49123L74.9035 3.59171C79.9367 3.67903 80.7768 3.76764 81.3357 4.27036C82.6901 5.48865 82.4265 8.24979 80.8894 8.94481C80.3867 9.1721 78.0036 9.31014 74.5816 9.31014H69.1073V13.1811H77.4376L81.6034 22.1844H84.0065C85.4483 22.1844 85.9289 22.1844 86.4096 22.1844C86.4096 22.1844 85.222 19.609 83.9552 17.3104C82.6888 15.0122 81.7065 13.0957 81.7718 13.0514C81.8375 13.0074 82.2764 12.8077 82.7474 12.6074C84.5682 11.8331 85.9346 9.10854 85.9346 6.25173C85.9346 3.32494 84.7662 1.56091 82.0943 0.452727C81.2901 0.119182 79.4408 0.000402219 75.0587 0.000402219H69.1139V3.49123ZM98.3191 0.46621C91.9425 2.44373 88.7724 8.80966 91.1208 14.9201C92.1052 17.4812 94.4009 19.8741 96.9725 21.0195C97.9444 21.4524 100.133 21.8301 101.789 21.7021C107.061 21.2947 109.627 19.285 111.45 15.4096C112.666 12.8215 112.629 9.28093 111.356 6.51016C109.049 1.48932 103.426 -1.11773 98.3191 0.46621ZM117.169 11.0922C117.169 17.0954 117.169 22.1844 117.169 22.1844C117.266 22.1844 118.454 21.2375 119.42 20.5133L121.178 19.1964V8.68085L128.795 15.357L136.394 22.1844L136.32 11.0915C136.367 5.11402 136.394 0.160513 136.394 0C135.909 0.321026 136.394 0 134.291 1.44461L132.515 2.5682V8.05076V13.5035L124.988 6.72685C120.937 3.02735 117.255 0 117.169 0C117.169 0 117.169 5.08902 117.169 11.0922ZM99.4894 3.97341C97.6903 4.45399 96.4174 5.39845 95.2422 7.12524C93.0361 10.3663 93.9312 14.7711 97.2138 16.8276C99.7744 18.4321 102.208 18.599 104.681 17.3403C106.183 16.5756 107.095 15.5756 107.904 13.8045C109.528 10.2498 108.124 6.28159 104.649 4.60391C102.738 3.6816 101.259 3.50086 99.4894 3.97341ZM25.4449 8.98871C25.4422 9.14923 25.4449 10.1875 25.4449 11.1294V12.8414H38.7073V8.98912H32.2918C28.7631 8.98912 25.6039 8.98871 25.4449 8.98871ZM25.4422 22.1508H32.9489L40.3247 22.1634V18.2989H25.4422V22.1508Z" fill="#1B193F"/>
<path d="M99.2507 36.0137C98.5466 36.0137 97.9418 35.8749 97.436 35.5973C96.9303 35.3097 96.5386 34.923 96.261 34.4371C95.9932 33.9413 95.8594 33.3761 95.8594 32.7414C95.8594 32.1365 96.0131 31.5862 96.3205 31.0904C96.6279 30.5946 97.0394 30.1979 97.555 29.9005C98.0707 29.603 98.6458 29.4542 99.2804 29.4542C100.094 29.4542 100.768 29.6922 101.303 30.1682C101.839 30.6442 102.201 31.2986 102.389 32.1316L97.317 33.9165L96.9898 33.0984L101.155 31.5812L100.857 31.7746C100.738 31.4474 100.54 31.1648 100.262 30.9268C99.9845 30.6789 99.6225 30.5549 99.1763 30.5549C98.7995 30.5549 98.4624 30.6491 98.1649 30.8375C97.8674 31.016 97.6344 31.2639 97.4658 31.5812C97.2972 31.8986 97.2129 32.2605 97.2129 32.667C97.2129 33.0934 97.3022 33.4703 97.4807 33.7975C97.6591 34.1148 97.9021 34.3677 98.2095 34.5561C98.5268 34.7346 98.8838 34.8238 99.2804 34.8238C99.5482 34.8238 99.806 34.7742 100.054 34.6751C100.312 34.5759 100.55 34.447 100.768 34.2883L101.407 35.3146C101.1 35.5229 100.753 35.6915 100.366 35.8204C99.9894 35.9493 99.6176 36.0137 99.2507 36.0137Z" fill="#1B193F"/>
<path d="M106.268 31.9977L107.741 29.7071H109.139L106.774 33.0092L106.268 31.9977ZM109.377 35.865H107.711L103.026 29.7071H104.736L109.377 35.865ZM106.12 33.5744L104.498 35.865H103.1L105.45 32.6522L106.12 33.5744Z" fill="#1B193F"/>
<path d="M114.492 36.0137C114.026 36.0137 113.574 35.9047 113.138 35.6865C112.712 35.4683 112.379 35.1758 112.141 34.8089L112.231 34.3776V38.8249H110.862V29.6178H112.052L112.246 31.1945L112.097 30.7632C112.394 30.3863 112.771 30.074 113.227 29.8261C113.683 29.5782 114.194 29.4542 114.759 29.4542C115.334 29.4542 115.85 29.5931 116.306 29.8707C116.772 30.1484 117.139 30.5351 117.407 31.0309C117.675 31.5267 117.809 32.1068 117.809 32.7712C117.809 33.4355 117.665 34.0107 117.377 34.4966C117.09 34.9825 116.693 35.3593 116.187 35.627C115.691 35.8848 115.126 36.0137 114.492 36.0137ZM114.224 34.913C114.62 34.913 114.982 34.8238 115.31 34.6453C115.647 34.4569 115.915 34.204 116.113 33.8867C116.311 33.5595 116.41 33.1926 116.41 32.786C116.41 32.3696 116.316 32.0027 116.128 31.6854C115.939 31.3581 115.686 31.1003 115.369 30.9119C115.062 30.7235 114.715 30.6293 114.328 30.6293C113.971 30.6293 113.649 30.6987 113.361 30.8375C113.074 30.9764 112.836 31.1697 112.647 31.4176C112.459 31.6556 112.325 31.9333 112.246 32.2506V33.2769C112.295 33.5942 112.414 33.8768 112.603 34.1247C112.791 34.3726 113.024 34.566 113.302 34.7048C113.589 34.8436 113.897 34.913 114.224 34.913Z" fill="#1B193F"/>
<path d="M122.535 36.0137C121.831 36.0137 121.226 35.8749 120.72 35.5973C120.215 35.3097 119.823 34.923 119.545 34.4371C119.278 33.9413 119.144 33.3761 119.144 32.7414C119.144 32.1365 119.298 31.5862 119.605 31.0904C119.912 30.5946 120.324 30.1979 120.839 29.9005C121.355 29.603 121.93 29.4542 122.565 29.4542C123.378 29.4542 124.052 29.6922 124.588 30.1682C125.123 30.6442 125.485 31.2986 125.674 32.1316L120.601 33.9165L120.274 33.0984L124.439 31.5812L124.142 31.7746C124.023 31.4474 123.824 31.1648 123.547 30.9268C123.269 30.6789 122.907 30.5549 122.461 30.5549C122.084 30.5549 121.747 30.6491 121.449 30.8375C121.152 31.016 120.919 31.2639 120.75 31.5812C120.582 31.8986 120.497 32.2605 120.497 32.667C120.497 33.0934 120.587 33.4703 120.765 33.7975C120.944 34.1148 121.187 34.3677 121.494 34.5561C121.811 34.7346 122.168 34.8238 122.565 34.8238C122.833 34.8238 123.09 34.7742 123.338 34.6751C123.596 34.5759 123.834 34.447 124.052 34.2883L124.692 35.3146C124.384 35.5229 124.037 35.6915 123.651 35.8204C123.274 35.9493 122.902 36.0137 122.535 36.0137Z" fill="#1B193F"/>
<path d="M128.641 29.7071L128.775 31.492L128.701 31.254C128.86 30.8772 129.088 30.5599 129.385 30.3021C129.693 30.0343 130.01 29.831 130.337 29.6922C130.674 29.5435 130.967 29.4691 131.215 29.4691L131.14 30.8375C130.674 30.8078 130.263 30.897 129.906 31.1053C129.559 31.3135 129.281 31.5912 129.073 31.9382C128.874 32.2853 128.775 32.6571 128.775 33.0538V35.865H127.407V29.7071H128.641Z" fill="#1B193F"/>
<path d="M133.594 27H134.977V29.7368H136.673V30.8227H134.977V35.865H133.594V30.8227H132.464V29.7368H133.594V27Z" fill="#1B193F"/>
</svg>
