<svg width="20" height="20" viewBox="0 0 20 20" fill="none" xmlns="http://www.w3.org/2000/svg">
<g id="simple-line-icons:energy" clip-path="url(#clip0_1254_1520)">
<g id="Vector">
<path d="M4.63762 10.8812L12.1376 1.38115L10.6376 8.88115H15.6376L8.13762 19.3812L9.63762 10.8812H4.63762Z" fill="url(#paint0_linear_1254_1520)"/>
<path d="M11.6606 2.01463L10.3208 9.05385L15.1744 9.07018L8.56778 18.6129L9.90757 10.8686L5.05426 10.8517L11.6606 2.01463ZM11.6615 0.827149C11.6294 0.827149 11.5974 0.828318 11.5659 0.830674C11.3563 0.847615 11.2174 0.917677 11.0526 1.02841C10.9599 1.09026 10.8762 1.16481 10.8042 1.24988C10.7825 1.27541 10.7621 1.30196 10.743 1.32944L4.08912 10.1356C3.82639 10.4958 3.78779 10.9711 3.98967 11.3683C4.19125 11.7655 4.59886 12.0173 5.04565 12.0205L8.47337 12.0455L7.39572 18.3947C7.29329 18.9404 7.58423 19.4843 8.09634 19.7034C8.24517 19.7673 8.40547 19.8002 8.56746 19.8001C8.94063 19.8001 9.24731 19.6256 9.4774 19.3103L16.1396 9.76752C16.4023 9.40739 16.4406 8.9315 16.239 8.53488C16.0374 8.13766 15.6298 7.88589 15.183 7.88264L11.7553 7.87671L12.8214 2.29397C12.844 2.20257 12.8554 2.10876 12.8553 2.01461C12.8553 1.37217 12.3437 0.848487 11.7037 0.827706C11.6894 0.827112 11.6754 0.827149 11.6615 0.827149Z" fill="url(#paint1_linear_1254_1520)"/>
</g>
</g>
<defs>
<linearGradient id="paint0_linear_1254_1520" x1="16.2542" y1="18.5429" x2="1.87121" y2="18.4251" gradientUnits="userSpaceOnUse">
<stop offset="0.116616" stop-color="#1D4ED8"/>
<stop offset="0.931232" stop-color="#5AD7FE"/>
</linearGradient>
<linearGradient id="paint1_linear_1254_1520" x1="16.2542" y1="18.5429" x2="1.87121" y2="18.4251" gradientUnits="userSpaceOnUse">
<stop offset="0.116616" stop-color="#1D4ED8"/>
<stop offset="0.931232" stop-color="#5AD7FE"/>
</linearGradient>
<clipPath id="clip0_1254_1520">
<rect width="19" height="19" fill="white" transform="translate(0.615234 0.813477)"/>
</clipPath>
</defs>
</svg>
