<svg width="22" height="22" viewBox="0 0 22 22" fill="none" xmlns="http://www.w3.org/2000/svg">
<g id="logos:telegram" clip-path="url(#clip0_1169_44448)">
<path id="Vector" d="M11 0C8.08328 0 5.28344 1.15964 3.22266 3.2218C1.15975 5.28477 0.000571433 8.08256 0 11C0 13.9162 1.16016 16.716 3.22266 18.7782C5.28344 20.8404 8.08328 22 11 22C13.9167 22 16.7166 20.8404 18.7773 18.7782C20.8398 16.716 22 13.9162 22 11C22 8.0838 20.8398 5.28395 18.7773 3.2218C16.7166 1.15964 13.9167 0 11 0Z" fill="url(#paint0_linear_1169_44448)"/>
<path id="Vector_2" d="M4.03102 10.5965C8.05831 8.76205 10.7432 7.55256 12.0856 6.96824C15.923 5.29969 16.7194 5.0099 17.2395 5.00009C17.3539 4.99817 17.6086 5.02773 17.7747 5.16823C17.9129 5.28672 17.9517 5.44696 17.9711 5.55947C17.9884 5.67186 18.0122 5.92802 17.9927 6.12799C17.7855 8.412 16.8855 13.9546 16.428 16.5128C16.2359 17.5952 15.8539 17.9581 15.4848 17.9936C14.682 18.0707 14.0733 17.4393 13.2964 16.9068C12.0813 16.0734 11.395 15.5547 10.2144 14.7416C8.85039 13.8018 9.73527 13.2852 10.5122 12.4411C10.7151 12.2201 14.2503 8.85842 14.3172 8.55351C14.3259 8.51536 14.3345 8.37318 14.2525 8.29825C14.1726 8.22309 14.0539 8.24882 13.9676 8.26913C13.8446 8.29802 11.9043 9.64044 8.14033 12.2962C7.58997 12.692 7.09142 12.885 6.6425 12.8748C6.15042 12.8638 5.20079 12.5833 4.49505 12.3436C3.63175 12.0495 2.94326 11.894 3.0037 11.3945C3.03391 11.1345 3.37707 10.8684 4.03102 10.5965Z" fill="white"/>
</g>
<defs>
<linearGradient id="paint0_linear_1169_44448" x1="1100" y1="0" x2="1100" y2="2200" gradientUnits="userSpaceOnUse">
<stop stop-color="#2AABEE"/>
<stop offset="1" stop-color="#229ED9"/>
</linearGradient>
<clipPath id="clip0_1169_44448">
<rect width="22" height="22" fill="white"/>
</clipPath>
</defs>
</svg>
